HIERARCHY
ROOT joint_0
{
	OFFSET 0.000000 0.000000 0.000000
	CHANNELS 6 Xposition Yposition Zposition Zrotation Yrotation Xrotation 
	JOINT joint_1
	{
		OFFSET 0.587158 0.057678 95.682007
		CHANNELS 3 Zrotation Yrotation Xrotation
		JOINT joint_2
		{
			OFFSET -7.116699 -0.219910 87.157959
			CHANNELS 3 Zrotation Yrotation Xrotation
			JOINT joint_3
			{
				OFFSET -5.892822 -0.290222 87.151001
				CHANNELS 3 Zrotation Yrotation Xrotation
				JOINT joint_4
				{
					OFFSET 5.544678 -0.099609 123.768066
					CHANNELS 3 Zrotation Yrotation Xrotation
					JOINT joint_5
					{
						OFFSET 41.981201 4.519775 84.257935
						CHANNELS 3 Zrotation Yrotation Xrotation
						End Site
						{
							OFFSET 0.000000 0.000000 0.000000
						}
					}
				}
				JOINT joint_6
				{
					OFFSET 3.940918 -26.976501 69.308105
					CHANNELS 3 Zrotation Yrotation Xrotation
					JOINT joint_7
					{
						OFFSET 4.776123 -152.592468 -16.842041
						CHANNELS 3 Zrotation Yrotation Xrotation
						JOINT joint_8
						{
							OFFSET 54.421875 -30.424072 -248.864014
							CHANNELS 3 Zrotation Yrotation Xrotation
							JOINT joint_9
							{
								OFFSET 42.120117 -33.387878 -236.524963
								CHANNELS 3 Zrotation Yrotation Xrotation
								End Site
								{
									OFFSET 0.000000 0.000000 0.000000
								}
							}
						}
					}
				}
				JOINT joint_10
				{
					OFFSET 2.312012 26.904114 69.425049
					CHANNELS 3 Zrotation Yrotation Xrotation
					JOINT joint_11
					{
						OFFSET 0.971436 152.197815 -20.626953
						CHANNELS 3 Zrotation Yrotation Xrotation
						JOINT joint_12
						{
							OFFSET 49.954102 28.991455 -249.970093
							CHANNELS 3 Zrotation Yrotation Xrotation
							JOINT joint_13
							{
								OFFSET 48.146973 19.598389 -236.919922
								CHANNELS 3 Zrotation Yrotation Xrotation
								End Site
								{
									OFFSET 0.000000 0.000000 0.000000
								}
							}
						}
					}
				}
			}
		}
	}
	JOINT joint_14
	{
		OFFSET 16.305664 -89.442932 -108.224976
		CHANNELS 3 Zrotation Yrotation Xrotation
		JOINT joint_15
		{
			OFFSET -22.282471 13.437134 -412.904968
			CHANNELS 3 Zrotation Yrotation Xrotation
			JOINT joint_16
			{
				OFFSET -45.426025 14.484802 -445.892029
				CHANNELS 3 Zrotation Yrotation Xrotation
				JOINT joint_17
				{
					OFFSET 173.389404 -9.944031 -76.473001
					CHANNELS 3 Zrotation Yrotation Xrotation
					End Site
					{
						OFFSET 0.000000 0.000000 0.000000
					}
				}
			}
		}
	}
	JOINT joint_18
	{
		OFFSET 13.392822 89.408875 -108.653992
		CHANNELS 3 Zrotation Yrotation Xrotation
		JOINT joint_19
		{
			OFFSET -29.032959 24.483521 -411.977966
			CHANNELS 3 Zrotation Yrotation Xrotation
			JOINT joint_20
			{
				OFFSET -30.530029 28.986328 -446.453018
				CHANNELS 3 Zrotation Yrotation Xrotation
				JOINT joint_21
				{
					OFFSET 170.330078 33.400757 -76.698997
					CHANNELS 3 Zrotation Yrotation Xrotation
					End Site
					{
						OFFSET 0.000000 0.000000 0.000000
					}
				}
			}
		}
	}
}
MOTION
Frames: 15
Frame Time: 0.016667
-2181.946777 912.657654 1060.092041 -9.876300 -2.704926 -0.086680 -0.329216 2.952153 1.491604 -0.539761 -0.608664 -0.330107 -0.503159 0.566880 0.226648 0.197333 -13.854125 2.262245 0.000000 0.000000 0.000000 -1.691983 0.689328 -1.095565 0.049709 0.537202 -0.003109 0.770373 -3.070606 1.372267 0.000000 0.000000 0.000000 -0.608645 1.557923 0.211277 0.612793 1.712112 1.553942 -0.693915 -3.428999 -2.066108 0.000000 0.000000 0.000000 2.114093 -0.353952 -6.906587 1.643126 2.067400 0.402658 1.538088 -0.692639 0.627124 0.000000 0.000000 0.000000 1.799111 2.289575 0.601745 1.629608 0.605028 1.321943 1.670193 0.584702 0.634981 0.000000 0.000000 0.000000 
-2181.792725 912.576660 1060.086060 -9.881456 -2.690756 -0.089083 -0.323244 2.954571 1.493759 -0.534071 -0.609140 -0.330642 -0.497475 0.567246 0.225991 0.194725 -13.858221 2.267205 0.000000 0.000000 0.000000 -1.682600 0.692824 -1.088657 0.047675 0.541504 -0.010551 0.769530 -3.070997 1.368570 0.000000 0.000000 0.000000 -0.603397 1.556366 0.198612 0.617577 1.710189 1.578960 -0.691642 -3.428506 -2.054528 0.000000 0.000000 0.000000 2.120090 -0.330909 -6.900858 1.647215 2.002806 0.395943 1.545273 -0.627107 0.634035 0.000000 0.000000 0.000000 1.801680 2.284690 0.609654 1.633529 0.606186 1.317492 1.672947 0.575496 0.638031 0.000000 0.000000 0.000000 
-2181.646729 912.510559 1060.078003 -9.889615 -2.679999 -0.090003 -0.317764 2.964861 1.496334 -0.529161 -0.607975 -0.330720 -0.492530 0.567819 0.226218 0.193932 -13.869659 2.270955 0.000000 0.000000 0.000000 -1.671065 0.695013 -1.082895 0.045901 0.544822 -0.016553 0.766311 -3.064774 1.358310 0.000000 0.000000 0.000000 -0.600409 1.553736 0.186542 0.621218 1.707376 1.599778 -0.688439 -3.424451 -2.039284 0.000000 0.000000 0.000000 2.127981 -0.309265 -6.902800 1.652211 1.946147 0.398328 1.553845 -0.565602 0.641313 0.000000 0.000000 0.000000 1.806151 2.283526 0.616195 1.639102 0.607263 1.310953 1.677097 0.565161 0.641925 0.000000 0.000000 0.000000 
-2181.506104 912.462402 1060.069946 -9.898359 -2.667678 -0.090599 -0.314699 2.977903 1.501943 -0.527121 -0.610896 -0.331247 -0.490476 0.570575 0.226172 0.195470 -13.880901 2.270455 0.000000 0.000000 0.000000 -1.659448 0.696341 -1.076168 0.043923 0.547235 -0.024385 0.762789 -3.057363 1.347011 0.000000 0.000000 0.000000 -0.598647 1.552949 0.172971 0.624812 1.706560 1.619302 -0.685762 -3.420002 -2.026857 0.000000 0.000000 0.000000 2.135070 -0.297740 -6.907159 1.656998 1.908257 0.403411 1.561098 -0.532894 0.646355 0.000000 0.000000 0.000000 1.811129 2.278842 0.618923 1.644985 0.610747 1.308526 1.681585 0.554145 0.646105 0.000000 0.000000 0.000000 
-2181.364746 912.437256 1060.062012 -9.907184 -2.650021 -0.090540 -0.315450 2.985267 1.509988 -0.528978 -0.611374 -0.331385 -0.492310 0.571046 0.226597 0.199185 -13.888181 2.265137 0.000000 0.000000 0.000000 -1.648389 0.696717 -1.068145 0.041121 0.548547 -0.036376 0.759174 -3.046908 1.337350 0.000000 0.000000 0.000000 -0.595936 1.556739 0.156791 0.628575 1.710207 1.636637 -0.684224 -3.417460 -2.019582 0.000000 0.000000 0.000000 2.140211 -0.302189 -6.913438 1.661012 1.896191 0.409417 1.565571 -0.549077 0.647369 0.000000 0.000000 0.000000 1.816316 2.265183 0.614088 1.650784 0.619516 1.315563 1.686093 0.541483 0.650616 0.000000 0.000000 0.000000 
-2181.227783 912.430054 1060.052979 -9.916535 -2.630413 -0.090125 -0.318236 2.993023 1.521970 -0.533479 -0.612900 -0.334010 -0.496576 0.572778 0.227809 0.204602 -13.895105 2.256678 0.000000 0.000000 0.000000 -1.639179 0.696085 -1.059064 0.038143 0.548588 -0.050135 0.755245 -3.034952 1.326864 0.000000 0.000000 0.000000 -0.595468 1.562116 0.139543 0.632156 1.715722 1.652202 -0.683131 -3.414091 -2.014843 0.000000 0.000000 0.000000 2.144528 -0.317273 -6.922062 1.664839 1.903112 0.417884 1.568714 -0.594555 0.646114 0.000000 0.000000 0.000000 1.821980 2.247330 0.605370 1.656944 0.631326 1.326716 1.690903 0.527551 0.655511 0.000000 0.000000 0.000000 
-2181.101562 912.419678 1060.041992 -9.925401 -2.613220 -0.090178 -0.323298 3.005381 1.532921 -0.540312 -0.614938 -0.336481 -0.503139 0.575178 0.229669 0.209558 -13.901848 2.249737 0.000000 0.000000 0.000000 -1.630123 0.695674 -1.050473 0.035630 0.548868 -0.062640 0.752698 -3.026756 1.319759 0.000000 0.000000 0.000000 -0.594237 1.566397 0.122006 0.635435 1.719988 1.667500 -0.681506 -3.409874 -2.007473 0.000000 0.000000 0.000000 2.148206 -0.335598 -6.930348 1.668340 1.918827 0.428321 1.571528 -0.636424 0.644923 0.000000 0.000000 0.000000 1.826917 2.233201 0.601087 1.662681 0.640161 1.331771 1.695191 0.514435 0.660011 0.000000 0.000000 0.000000 
-2180.993164 912.395081 1060.029053 -9.934723 -2.600169 -0.091081 -0.329255 3.024878 1.541344 -0.548063 -0.617727 -0.339050 -0.510597 0.578115 0.231830 0.212384 -13.907063 2.247198 0.000000 0.000000 0.000000 -1.625277 0.696029 -1.041262 0.033946 0.549451 -0.072922 0.752460 -3.025795 1.317651 0.000000 0.000000 0.000000 -0.596825 1.568555 0.105921 0.638349 1.722604 1.683079 -0.678655 -3.402950 -1.994462 0.000000 0.000000 0.000000 2.151499 -0.359029 -6.938245 1.671816 1.947109 0.443092 1.574656 -0.664737 0.644651 0.000000 0.000000 0.000000 1.830745 2.226511 0.607050 1.668154 0.642681 1.322481 1.698849 0.502336 0.664026 0.000000 0.000000 0.000000 
-2180.896729 912.368347 1060.012939 -9.943672 -2.590207 -0.092625 -0.336588 3.050680 1.549726 -0.557441 -0.621817 -0.342152 -0.519625 0.581761 0.234389 0.214085 -13.911229 2.247123 0.000000 0.000000 0.000000 -1.622949 0.696645 -1.032646 0.032892 0.550068 -0.081392 0.753470 -3.028659 1.318140 0.000000 0.000000 0.000000 -0.601333 1.569341 0.090238 0.640937 1.724064 1.698201 -0.675356 -3.394950 -1.979354 0.000000 0.000000 0.000000 2.154198 -0.385283 -6.945669 1.675001 1.984495 0.459912 1.577469 -0.689919 0.644422 0.000000 0.000000 0.000000 1.833737 2.224051 0.617595 1.673092 0.642744 1.307229 1.701794 0.490329 0.667701 0.000000 0.000000 0.000000 
-2180.803711 912.353577 1059.994995 -9.949953 -2.582479 -0.094480 -0.346324 3.081772 1.559726 -0.569459 -0.629532 -0.344774 -0.531370 0.588307 0.236577 0.216372 -13.918585 2.247027 0.000000 0.000000 0.000000 -1.618305 0.696865 -1.024155 0.031433 0.550543 -0.091518 0.754797 -3.030615 1.320991 0.000000 0.000000 0.000000 -0.600363 1.567524 0.071952 0.643292 1.722110 1.713697 -0.672470 -3.389046 -1.965599 0.000000 0.000000 0.000000 2.156054 -0.402560 -6.949594 1.677342 2.009573 0.469918 1.579400 -0.707831 0.644228 0.000000 0.000000 0.000000 1.836441 2.221433 0.624183 1.677234 0.646228 1.298490 1.704100 0.477859 0.671180 0.000000 0.000000 0.000000 
-2180.712646 912.362732 1059.977051 -9.951254 -2.577341 -0.096845 -0.359780 3.116791 1.575276 -0.585887 -0.637830 -0.349663 -0.547258 0.597585 0.240185 0.219609 -13.929893 2.246264 0.000000 0.000000 0.000000 -1.611243 0.695545 -1.017891 0.029538 0.549783 -0.103943 0.756833 -3.032077 1.327776 0.000000 0.000000 0.000000 -0.592447 1.562213 0.046703 0.645676 1.715628 1.731550 -0.670179 -3.385396 -1.954059 0.000000 0.000000 0.000000 2.156615 -0.403317 -6.946611 1.678484 2.010151 0.465489 1.579858 -0.715289 0.643996 0.000000 0.000000 0.000000 1.838586 2.216294 0.622065 1.679858 0.657215 1.303912 1.705254 0.464876 0.674245 0.000000 0.000000 0.000000 
-2180.625977 912.383850 1059.956055 -9.950166 -2.574891 -0.099495 -0.376196 3.157995 1.592412 -0.605574 -0.648911 -0.354477 -0.566403 0.608343 0.244136 0.223677 -13.943991 2.244956 0.000000 0.000000 0.000000 -1.599638 0.693758 -1.012390 0.027331 0.549072 -0.117522 0.759051 -3.032442 1.336383 0.000000 0.000000 0.000000 -0.576601 1.554626 0.018732 0.647883 1.705733 1.749896 -0.668536 -3.384334 -1.944921 0.000000 0.000000 0.000000 2.156317 -0.394827 -6.940278 1.678720 1.998684 0.454498 1.579388 -0.715783 0.643761 0.000000 0.000000 0.000000 1.840431 2.211365 0.616159 1.681689 0.671916 1.315702 1.705721 0.451168 0.677144 0.000000 0.000000 0.000000 
-2180.534180 912.399048 1059.932983 -9.953029 -2.569708 -0.102173 -0.387303 3.193647 1.607907 -0.619679 -0.658454 -0.359152 -0.580005 0.617299 0.247681 0.226466 -13.954103 2.244093 0.000000 0.000000 0.000000 -1.593328 0.696485 -1.002939 0.024089 0.552207 -0.133340 0.759833 -3.028996 1.341433 0.000000 0.000000 0.000000 -0.566621 1.545681 -0.006050 0.650364 1.695348 1.768356 -0.668357 -3.387433 -1.942135 0.000000 0.000000 0.000000 2.156791 -0.392809 -6.937929 1.679271 1.991862 0.451637 1.579959 -0.712658 0.644187 0.000000 0.000000 0.000000 1.843385 2.205783 0.612508 1.684932 0.684182 1.323821 1.707444 0.436765 0.680743 0.000000 0.000000 0.000000 
-2180.436035 912.395325 1059.906006 -9.962895 -2.559387 -0.104883 -0.390076 3.220448 1.618399 -0.624723 -0.664802 -0.362272 -0.584757 0.624399 0.249575 0.225363 -13.962054 2.249178 0.000000 0.000000 0.000000 -1.592280 0.706140 -0.984876 0.019182 0.561457 -0.153192 0.758202 -3.020395 1.339398 0.000000 0.000000 0.000000 -0.565849 1.534245 -0.022798 0.652500 1.683775 1.784828 -0.669338 -3.391206 -1.945547 0.000000 0.000000 0.000000 2.158823 -0.405338 -6.943678 1.680587 1.998244 0.466010 1.582635 -0.705013 0.645790 0.000000 0.000000 0.000000 1.848274 2.199591 0.615491 1.690976 0.690358 1.321352 1.711593 0.421602 0.685578 0.000000 0.000000 0.000000 
-2180.333984 912.385681 1059.875977 -9.977120 -2.546848 -0.107111 -0.388061 3.243078 1.626091 -0.624622 -0.670608 -0.364851 -0.584390 0.630609 0.251723 0.223766 -13.967609 2.253618 0.000000 0.000000 0.000000 -1.593875 0.719915 -0.963858 0.013367 0.574475 -0.174792 0.755131 -3.008146 1.333672 0.000000 0.000000 0.000000 -0.568791 1.521066 -0.036455 0.654781 1.671019 1.801247 -0.671825 -3.398653 -1.955733 0.000000 0.000000 0.000000 2.161762 -0.424018 -6.954113 1.682267 2.009697 0.488763 1.586379 -0.694803 0.648005 0.000000 0.000000 0.000000 1.854411 2.193076 0.620339 1.698568 0.694579 1.314957 1.717058 0.405448 0.691197 0.000000 0.000000 0.000000 
